<?xml version="1.0" encoding="utf-8"?>
<!-- Svg Vector Icons : http://www.onlinewebfonts.com/icon -->
<!DOCTYPE svg PUBLIC "-//W3C//DTD SVG 1.1//EN" "http://www.w3.org/Graphics/SVG/1.1/DTD/svg11.dtd">
<svg version="1.1" xmlns="http://www.w3.org/2000/svg" xmlns:xlink="http://www.w3.org/1999/xlink" x="0px" y="0px" viewBox="0 0 1000 1000" enable-background="new 0 0 1000 1000" xml:space="preserve">
<metadata> Svg Vector Icons : http://www.onlinewebfonts.com/icon </metadata>
<g><path d="M408.3,668.8c-33.8,58.6-11.1,106.8,35.8,133.9s100.1,22.7,133.9-35.9c33.8-58.6,247.3-581.4,228.7-592.2C788.2,163.9,442.1,610.2,408.3,668.8L408.3,668.8z M500,296.4c21.5,0,42.4,1.9,62.8,5.3c21.5-26.9,45.5-56.4,68.9-84.6c-41.8-12.1-85.8-18.7-131.7-18.7c-274.7,0-490,231.7-490,527.4c0,18.2,0.8,36.4,2.4,54.1c2.4,27,26.5,46.8,53.2,44.4c26.9-2.5,46.8-26.2,44.4-53.2c-1.3-14.8-2-30.1-2-45.4C108,485,280.2,296.4,500,296.4L500,296.4z M853.7,357.6c-13.7,36.7-28.1,74.2-40.9,106.6c49.8,72,79.1,162.3,79.1,261.7c0,15.5-0.7,31.2-2.1,46.3c-2.4,27,17.4,50.8,44.3,53.3c1.5,0.1,3,0.2,4.5,0.2c25,0,46.4-19.2,48.7-44.5c1.7-18.1,2.5-36.7,2.5-55.2C990,581.2,938.5,452,853.7,357.6L853.7,357.6z"/></g>
</svg>