<?xml version="1.0" encoding="utf-8"?>
<!-- Svg Vector Icons : http://www.onlinewebfonts.com/icon -->
<!DOCTYPE svg PUBLIC "-//W3C//DTD SVG 1.1//EN" "http://www.w3.org/Graphics/SVG/1.1/DTD/svg11.dtd">
<svg version="1.1" xmlns="http://www.w3.org/2000/svg" xmlns:xlink="http://www.w3.org/1999/xlink" x="0px" y="0px" viewBox="0 0 1000 1000" enable-background="new 0 0 1000 1000" xml:space="preserve">
<metadata> Svg Vector Icons : http://www.onlinewebfonts.com/icon </metadata>
<g><path d="M79.4,186.4C40.9,186.4,10,217,10,255.1v350c0,38,30.9,68.6,69.4,68.6h1.1v67.7c0,38.6,31.1,69.7,69.9,69.7h139.8c38.7,0,69.9-31.1,69.9-69.7v-67.7h70.2v70.6c0,38.4,30.9,69.4,69.3,69.4h350.7c38.4,0,69.3-30.9,69.3-69.4v-70.6h1c38.5,0,69.4-30.6,69.4-68.6v-350c0-38-30.9-68.7-69.4-68.7H79.4L79.4,186.4z M116.3,254.9h103.2c20.8,0,37.5,17.4,37.5,39.1v271.3c0,21.6-16.7,39.1-37.5,39.1H116.3c-20.8,0-37.5-17.4-37.5-39.1V294C78.9,272.3,95.6,254.9,116.3,254.9z M335.3,254.9h103.2c20.8,0,37.5,17.4,37.5,39.1v271.3c0,21.6-16.7,39.1-37.5,39.1H335.3c-20.8,0-37.5-17.4-37.5-39.1V294C297.8,272.3,314.5,254.9,335.3,254.9z M554.2,254.9h103.2c20.8,0,37.5,17.4,37.5,39.1v271.3c0,21.6-16.7,39.1-37.5,39.1H554.2c-20.8,0-37.5-17.4-37.5-39.1V294C516.8,272.3,533.5,254.9,554.2,254.9z M773.2,254.9h103.2c20.8,0,37.5,17.4,37.5,39.1v271.3c0,21.6-16.7,39.1-37.5,39.1H773.2c-20.8,0-37.5-17.4-37.5-39.1V294C735.7,272.3,752.4,254.9,773.2,254.9z"/></g>
</svg>