<?xml version="1.0" encoding="utf-8"?>
<!-- Svg Vector Icons : http://www.onlinewebfonts.com/icon -->
<!DOCTYPE svg PUBLIC "-//W3C//DTD SVG 1.1//EN" "http://www.w3.org/Graphics/SVG/1.1/DTD/svg11.dtd">
<svg version="1.1" xmlns="http://www.w3.org/2000/svg" xmlns:xlink="http://www.w3.org/1999/xlink" x="0px" y="0px" viewBox="0 0 1000 1000" enable-background="new 0 0 1000 1000" xml:space="preserve">
<metadata> Svg Vector Icons : http://www.onlinewebfonts.com/icon </metadata>
<g><path d="M713,20.7c-152.9,0-277,47.7-277,106.5c0,58.8,124,106.5,277,106.5S990,186,990,127.2C990,68.4,866,20.7,713,20.7z M713,191.1c-129.4,0-234.3-28.6-234.3-63.9c0-35.3,104.9-63.9,234.3-63.9c129.5,0,234.3,28.6,234.3,63.9C947.4,162.5,842.5,191.1,713,191.1z"/><path d="M958,118.9h21.3c5.9,0,10.7,4.9,10.7,11.1v597c0,6.1-4.8,11.1-10.7,11.1H958c-5.9,0-10.7-4.9-10.7-11.1V130C947.4,123.9,952.2,118.9,958,118.9z"/><path d="M713,787.6c-56.7,0-108.6-5.5-149.1-14.6c0,15.2,0,28.8,0,40.2c43.1,10.7,94.1,17,149.1,17c152.9,0,277-47.7,277-106.5h-42.6C947.4,759,842.5,787.6,713,787.6z"/><path d="M444,340.2c0.5,0.1,19,14.2,34.6,26.2v-33.6c49,29.9,135.5,49.9,234.3,49.9c152.9,0,277-47.7,277-106.5h-42.6c0,35.3-104.9,63.9-234.3,63.9c-129.4,0-234.3-28.6-234.3-63.9V130.6c0-6.5-4.8-11.7-10.7-11.7h-21.3c-5.9,0-10.7,5.3-10.7,11.7v208.2C438.8,339.3,441.4,339.7,444,340.2z"/><path d="M713,489.3c-56.7,0-108.6-5.5-149.1-14.6c0,12.9,0,26.4,0,40.2C607,525.6,657.9,532,713,532c152.9,0,277-47.7,277-106.5h-42.6C947.4,460.7,842.5,489.3,713,489.3z"/><path d="M713,638.5c-56.7,0-108.6-5.5-149.1-14.6c0,13.6,0,27,0,40.2c43.1,10.7,94,17,149.1,17c152.9,0,277-47.7,277-106.5h-42.6C947.4,609.9,842.5,638.5,713,638.5z"/><path d="M287,318.9c-153,0-277,47.7-277,106.5C10,484.3,134,532,287,532c153,0,277-47.7,277-106.5C563.9,366.6,439.9,318.9,287,318.9z M287,489.3c-129.4,0-234.3-28.6-234.3-63.9c0-35.3,104.9-63.9,234.3-63.9c129.4,0,234.3,28.6,234.3,63.9C521.3,460.7,416.4,489.3,287,489.3z"/><path d="M287,638.5c129.4,0,234.3-28.6,234.3-63.9h42.6c0,58.8-124,106.5-277,106.5S10,633.4,10,574.6h42.6C52.6,609.9,157.5,638.5,287,638.5z"/><path d="M20.7,415.9H42c5.9,0,10.7,5.1,10.7,11.4v455.4c0,6.3-4.8,11.4-10.7,11.4H20.7c-5.9,0-10.7-5.1-10.7-11.4V427.3C10,421,14.8,415.9,20.7,415.9z"/><path d="M532,420.8h21.3c5.9,0,10.7,5,10.7,11.3v450.7c0,6.2-4.8,11.3-10.7,11.3H532c-5.9,0-10.7-5-10.7-11.3V432.1C521.3,425.9,526.1,420.8,532,420.8z"/><path d="M287,787.6c129.4,0,234.3-28.6,234.3-63.9h42.6c0,58.8-124,106.5-277,106.5S10,782.5,10,723.7h42.6C52.6,759,157.5,787.6,287,787.6z"/><path d="M287,936.7c129.4,0,234.3-28.6,234.3-63.9h42.6c0,58.8-124,106.5-277,106.5S10,931.7,10,872.8h42.6C52.6,908.1,157.5,936.7,287,936.7z"/></g>
</svg>